<svg viewBox="0 0 128 128" style="enable-background:new 0 0 128 128" xml:space="preserve" xmlns="http://www.w3.org/2000/svg"><path style="fill:#4fb0c6" d="M14.084 13.271c-.984.032-2.092.312-3.404 1.03-3.35 1.83-3.86 5.529-1.22 6.049 3.57.7 4.79-4.24 5.54-4.32 2.91-.32 5.63 3.34 6.95 6.67 1.17 2.98 2.47 7.02 3 10.23.456 2.762.579 4.478.585 5.525-4.814.09-8.55 1.68-10.295 2.494-4.813 2.248-10.958 9.223-10.744 17.457-.054.675-.125 1.942-.006 2.905.245 2.018 1.137 3.208 1.455 3.576 2.233 5.321 7.05 10.086 14.735 11.824 4.077.922 7.462.915 10.091.603-.78.76-3.586 3.618-4.64 6.625C24.91 87.41 22.85 95.86 22 96.61c-.85.75-3.66 2.062-4.69 2.532-1.03.47-3.28.939-3.28 2.529 0 1.59 2.06 1.6 5.63 1.03 3.57-.57 4.88-.75 5.54-1.6.66-.85 4.32-14.17 4.88-15.02.56-.84 1.6-3.19 4.79-5.63a222.22 222.22 0 0 0 3.077-2.407c.716 1.04 1.64 2.246 2.662 3.137.07.49-4.64 11.68-4.93 13.16-.29 1.48-2.47 14.08-2.75 14.36-.29.29-2.61 1.69-4.58 2.75-1.97 1.06-5.708 3.59-4.718 4.86.98 1.27 5.91.04 7.53-.49 3.09-1.02 5.909-3.59 6.259-4.22.35-.63 3.31-13.66 4.01-16.26.71-2.61 4.37-11.37 4.58-11.76.42.04 1.55.71 2.92.99 2.39.49 3.13.42 3.55.49.28.56-.14 12.81-.14 14.64s-.07 12.95.28 14.15c.35 1.19 4.51 5.35 5.14 5.84.63.49 2.96.91 3.8.21.84-.7.7-1.97.21-2.6-.5-.64-4.51-5.92-4.58-6.76-.07-.84.56-9.99.77-11.12.21-1.13.32-13.55.46-14.47.71-.31 1.45-.45 2.29-.7 1.69-.49 2.5 1.52 3.59 3.03.7.97 3.24 5.38 3.66 6.65.42 1.26 3.13 7.7 3.59 9.57.41 1.67 1.34 6.06 1.97 6.83.64.77 6.06 4.33 6.62 4.75.56.42 3.02 2.22 4.15 1.02 1.12-1.2-.43-2.89-1.27-3.66-.85-.77-4.19-4.04-4.72-4.5-.19-.17-.64-3.03-1.34-5.42-1.08-3.65-3.26-9.23-3.77-10.42-.53-1.23-1.9-3.49-3.17-5.81-.89-1.63-3.03-4.57-2.78-5.03.5-.93 3.78 3.06 6.9 7.07 2.66 3.416 7.335 7.183 8.909 8.414l.49.406s1.741 1.3 3.531 2.3c1.69.94 9.81 4.88 17.2 5.23 12.92.62 16.81-2.98 17.63-4.01.4-.51.83-2.52 1-3.59.13-.84 1.51-8.79.47-15.02-.84-5.07-3.57-14.08-13.8-23.09s-24.12-11.26-32.85-6.19c-8.23 4.78-11.07 11.73-11.07 11.73s-2.63-6.96-9.76-7.88c-5.82-.75-8.35 2.25-8.35 2.25s.36-8.876-7.007-15.13c.643-1.163 1.456-2.912 2.207-5.37 1.44-4.74 1.52-8.01.84-11.5-.65-3.38-2.11-6.71-4.08-8.73-1.2-1.218-3.57-2.604-5.566-2.6-.134.001-.266.007-.395.02-3.24.32-4.27 3.56-2.09 4.82 2.46 1.42 4.21-1 4.9-.88 1.97.33 4.19 4.59 4.85 8.12.7 3.81.072 7.06-.988 10-.727 2.006-1.43 3.476-1.951 4.45a22.646 22.646 0 0 0-2.92-1.6 22.947 22.947 0 0 0-7.29-1.925c-.015-.777-.104-2.046-.38-4.225-.65-5.12-2.21-9.48-3.52-12.95-1.31-3.47-4.01-6.44-6.71-7.41-1.03-.37-2.09-.74-3.356-.699z"/></svg>
